# This file uses centimeters as units for non-parametric coordinates.

mtllib FogCircleVolume.mtl
g default
v 95.105713 0.000000 -30.901718
v 80.901756 0.000000 -58.778561
v 58.778561 0.000000 -80.901749
v 30.901714 0.000000 -95.105705
v 0.000000 0.000000 -100.000046
v -30.901714 0.000000 -95.105698
v -58.778549 0.000000 -80.901733
v -80.901726 0.000000 -58.778542
v -95.105675 0.000000 -30.901707
v -100.000023 0.000000 0.000000
v -95.105675 0.000000 30.901707
v -80.901718 0.000000 58.778538
v -58.778538 0.000000 80.901711
v -30.901707 0.000000 95.105667
v -0.000003 0.000000 100.000015
v 30.901697 0.000000 95.105659
v 58.778526 0.000000 80.901703
v 80.901703 0.000000 58.778530
v 95.105652 0.000000 30.901701
v 100.000000 0.000000 0.000000
v 95.105713 50.000000 -30.901718
v 80.901756 50.000000 -58.778561
v 58.778561 50.000000 -80.901749
v 30.901714 50.000000 -95.105705
v 0.000000 50.000000 -100.000046
v -30.901714 50.000000 -95.105698
v -58.778549 50.000000 -80.901733
v -80.901726 50.000000 -58.778542
v -95.105675 50.000000 -30.901707
v -100.000023 50.000000 0.000000
v -95.105675 50.000000 30.901707
v -80.901718 50.000000 58.778538
v -58.778538 50.000000 80.901711
v -30.901707 50.000000 95.105667
v -0.000003 50.000000 100.000015
v 30.901697 50.000000 95.105659
v 58.778526 50.000000 80.901703
v 80.901703 50.000000 58.778530
v 95.105652 50.000000 30.901701
v 100.000000 50.000000 0.000000
vt 8.158020 0.000000
vt 7.389872 0.000000
vt 6.621718 0.000000
vt 5.853567 0.000000
vt 5.085419 0.000000
vt 4.317267 0.000000
vt 3.549115 0.000000
vt 2.780964 0.000000
vt 2.012813 0.000000
vt 1.244662 0.000000
vt 0.476511 0.000000
vt -0.291641 0.000000
vt -1.059791 0.000000
vt -1.827942 0.000000
vt -2.596093 0.000000
vt -3.364245 0.000000
vt -4.132396 0.000000
vt -4.900546 0.000000
vt -5.668697 0.000000
vt -6.436847 0.000000
vt -7.205001 0.000000
vt 8.158020 1.000000
vt 7.389872 1.000000
vt 6.621718 1.000000
vt 5.853567 1.000000
vt 5.085419 1.000000
vt 4.317267 1.000000
vt 3.549115 1.000000
vt 2.780964 1.000000
vt 2.012813 1.000000
vt 1.244662 1.000000
vt 0.476511 1.000000
vt -0.291641 1.000000
vt -1.059791 1.000000
vt -1.827942 1.000000
vt -2.596093 1.000000
vt -3.364245 1.000000
vt -4.132396 1.000000
vt -4.900546 1.000000
vt -5.668697 1.000000
vt -6.436847 1.000000
vt -7.205001 1.000000
vn -0.951057 0.000000 0.309016
vn -0.951057 0.000000 0.309016
vn -0.809017 0.000000 0.587785
vn -0.809017 0.000000 0.587785
vn -0.587785 0.000000 0.809017
vn -0.587785 0.000000 0.809017
vn -0.309017 0.000000 0.951057
vn -0.309017 0.000000 0.951057
vn 0.000000 0.000000 1.000000
vn 0.000000 0.000000 1.000000
vn 0.309017 0.000000 0.951056
vn 0.309017 0.000000 0.951056
vn 0.587785 0.000000 0.809017
vn 0.587785 0.000000 0.809017
vn 0.809017 0.000000 0.587785
vn 0.809017 0.000000 0.587785
vn 0.951057 0.000000 0.309017
vn 0.951057 0.000000 0.309017
vn 1.000000 0.000000 0.000000
vn 1.000000 0.000000 0.000000
vn 0.951057 0.000000 -0.309017
vn 0.951057 0.000000 -0.309017
vn 0.809017 0.000000 -0.587785
vn 0.809017 0.000000 -0.587785
vn 0.587785 0.000000 -0.809017
vn 0.587785 0.000000 -0.809017
vn 0.309017 0.000000 -0.951056
vn 0.309017 0.000000 -0.951056
vn 0.000000 0.000000 -1.000000
vn 0.000000 0.000000 -1.000000
vn -0.309017 0.000000 -0.951056
vn -0.309017 0.000000 -0.951056
vn -0.587785 0.000000 -0.809017
vn -0.587785 0.000000 -0.809017
vn -0.809017 0.000000 -0.587785
vn -0.809017 0.000000 -0.587785
vn -0.951057 0.000000 -0.309017
vn -0.951057 0.000000 -0.309017
vn -1.000000 0.000000 -0.000001
vn -1.000000 0.000000 -0.000001
s 1
g FogCircle
usemtl initialShadingGroup
f 1/1/1 21/22/2 22/23/3 2/2/4
f 2/2/4 22/23/3 23/24/5 3/3/6
f 3/3/6 23/24/5 24/25/7 4/4/8
f 4/4/8 24/25/7 25/26/9 5/5/10
f 5/5/10 25/26/9 26/27/11 6/6/12
f 6/6/12 26/27/11 27/28/13 7/7/14
f 7/7/14 27/28/13 28/29/15 8/8/16
f 8/8/16 28/29/15 29/30/17 9/9/18
f 9/9/18 29/30/17 30/31/19 10/10/20
f 10/10/20 30/31/19 31/32/21 11/11/22
f 11/11/22 31/32/21 32/33/23 12/12/24
f 12/12/24 32/33/23 33/34/25 13/13/26
f 13/13/26 33/34/25 34/35/27 14/14/28
f 14/14/28 34/35/27 35/36/29 15/15/30
f 15/15/30 35/36/29 36/37/31 16/16/32
f 16/16/32 36/37/31 37/38/33 17/17/34
f 17/17/34 37/38/33 38/39/35 18/18/36
f 18/18/36 38/39/35 39/40/37 19/19/38
f 19/19/38 39/40/37 40/41/39 20/20/40
f 20/20/40 40/41/39 21/42/2 1/21/1
